<?xml version="1.0" encoding="UTF-8"?>
<svg width="431px" height="571px" viewBox="0 0 431 571" version="1.1" xmlns="http://www.w3.org/2000/svg" xmlns:xlink="http://www.w3.org/1999/xlink">
    <!-- Generator: Sketch 53.2 (72643) - https://sketchapp.com -->
    <title>Housing and people logo</title>
    <desc>Created with Sketch.</desc>
    <g id="Housing-and-people-logo" stroke="none" stroke-width="1" fill="none" fill-rule="evenodd">
        <g>
            <g id="noun_building_1987242" transform="translate(6.000000, 125.000000)" fill="#000000">
                <g id="Shape">
                    <path d="M290.930599,152.224181 L231.940063,207.833753 L231.940063,126.38539 L267.691903,126.38539 L133.622503,0 L0,126.38539 L35.7518402,126.38539 L35.7518402,446 L389.24816,445.438287 L389.24816,278.047859 L425,278.047859 L290.930599,152.224181 Z M94.0521673,306.325732 L67.6851852,306.325732 L67.6851852,263.635556 L94.0521673,263.635556 L94.0521673,306.325732 Z M94.2954784,241.913496 L67.9284963,241.913496 L67.9284963,199.223319 L94.2954784,199.223319 L94.2954784,241.913496 Z M94.2954784,177.501259 L67.9284963,177.501259 L67.9284963,134.811083 L94.2954784,134.811083 L94.2954784,177.501259 Z M146.786132,306.325732 L120.419149,306.325732 L120.419149,263.635556 L146.786132,263.635556 L146.786132,306.325732 Z M147.029443,241.913496 L120.662461,241.913496 L120.662461,199.223319 L147.029443,199.223319 L147.029443,241.913496 Z M147.029443,177.501259 L120.662461,177.501259 L120.662461,134.811083 L147.029443,134.811083 L147.029443,177.501259 Z M199.073198,306.325732 L172.706216,306.325732 L172.706216,263.635556 L199.073198,263.635556 L199.073198,306.325732 Z M199.316509,241.913496 L172.949527,241.913496 L172.949527,199.223319 L199.316509,199.223319 L199.316509,241.913496 Z M199.316509,177.501259 L172.949527,177.501259 L172.949527,134.811083 L199.316509,134.811083 L199.316509,177.501259 Z M251.360264,306.325732 L224.993282,306.325732 L224.993282,263.635556 L251.360264,263.635556 L251.360264,306.325732 Z M303.64733,306.325732 L277.280348,306.325732 L277.280348,263.635556 L303.64733,263.635556 L303.64733,306.325732 Z M355.934397,306.325732 L329.567414,306.325732 L329.567414,263.635556 L355.934397,263.635556 L355.934397,306.325732 Z" fill-rule="nonzero"></path>
                </g>
            </g>
            <g id="noun_Community_2739772" transform="translate(52.000000, 470.000000)" fill="#FFFFFF" fill-rule="nonzero">
                <path d="M26.0181,86.7416311 C25.5666,86.1333354 25.3305,85.3399063 25.353,84.5075613 C25.4403,81.2643251 25.7796,78.6788796 26.2461,76.6136968 C24.7176,76.9133108 22.9659,77.1177132 21,77.1483169 L21,95.8354627 C21,97.9221814 22.3434,99.6136968 24,99.6136968 C25.6569,99.6136968 27,97.9221814 27,95.8354627 L27,87.5516845 C26.6298,87.3869535 26.2938,87.1130315 26.0181,86.7416311 Z" id="Path"></path>
                <path d="M20,77.3037193 C17.702,77.268449 15.6992,76.9952916 14,76.6136968 L14,95.8615352 C14,97.9338541 15.3443,99.6136968 17,99.6136968 C18.6572,99.6136968 20,97.9338541 20,95.8615352 L20,77.3037193 Z" id="Path"></path>
                <path d="M2.16160944,64.2106906 C3.52254093,64.3823181 4.77251651,63.4672147 4.95234159,62.1675926 C6.53480227,50.7156543 9.62281971,44.6732697 12.2628049,41.5021771 L5.69115483,72.3272122 C5.69115483,72.3272122 11.4356095,75.6136968 22.2710269,75.6136968 C25.2278103,75.6136968 27.8023698,75.3679408 29.9878184,75.0122701 C31.6441221,70.4918931 34.1402472,69.0334242 34.9838947,68.6573043 C35.2716148,68.470705 35.5861174,68.3418018 35.9163068,68.2731508 C34.6556182,67.0082193 33.8762487,65.302899 33.8762487,63.4233949 C33.8762487,61.5427954 34.6567661,59.8363795 35.9186025,58.5714481 L32.2826924,41.5167837 C34.4719671,44.1594826 36.9784226,48.7868529 38.6691609,56.8325325 C39.2622011,56.6192762 39.8881454,56.4713844 40.54202,56.410767 C40.5163853,52.9833287 40.6682801,49.8659154 41,47.0687518 C36.4657298,35.3506082 30.0100096,33.6321419 28.5128701,33.3893072 C27.8570825,33.2326514 25.0854807,32.6136968 22.2714095,32.6136968 C19.457721,32.6136968 16.6857366,33.2326514 16.0299489,33.3893072 C14.056847,33.7091917 3.47050644,36.5866916 0.0216910229,61.5471773 C-0.158134054,62.8467994 0.799912739,64.039063 2.16160944,64.2106906 Z" id="Path"></path>
                <circle id="Oval" cx="19.5" cy="24.1136968" r="7.5"></circle>
                <path d="M162,46.6136968 C161.11366,47.5261154 160.103047,48.2879015 159,48.8657091 C160.185211,49.0663607 161.143444,49.3296799 161.915269,49.6136968 C161.915269,49.5648275 161.912188,49.5182579 161.912188,49.4693886 C161.912188,48.5213243 161.944026,47.5686604 162,46.6136968 Z" id="Path"></path>
                <path d="M163.680101,38.7205109 C163.86012,38.2745608 164.048182,37.8308461 164.248118,37.391602 L165.516291,37.391602 C165.02373,38.4321522 164.589004,39.502507 164.209816,40.5918621 C164.27761,41.0191843 164.312848,41.4569382 164.312848,41.9025157 C164.312848,43.7027086 163.737937,45.3743695 162.758942,46.7550637 C162.622588,47.8544779 162.544452,48.9576176 162.544452,50.0585219 C162.544452,50.2425648 162.554027,50.4191566 162.558241,50.5998465 C165.430878,51.8989509 170.251164,55.6412806 173.018472,66.3805933 C176.682043,67.9367617 181.001341,68.6136968 185.464653,68.6136968 C186.931614,68.6136968 188.38287,68.5395581 189.800804,68.3864374 C188.536078,67.5239691 187.723313,66.0806854 187.770807,64.4686335 C188.212427,49.4896282 191.225633,39.3985637 196.725776,34.4759751 C199.197394,32.2633622 201.571342,31.6296437 203,31.4634835 C201.434987,29.6800557 200.487017,27.3694605 200.487017,24.8465081 C200.487017,23.1122577 200.935148,21.4785976 201.722634,20.0468631 C199.403075,18.5935203 197.281919,17.921801 195.878157,17.6136968 C193.596899,20.8340749 189.780887,22.9505682 185.465037,22.9505682 C181.149186,22.9505682 177.333174,20.8340749 175.051533,17.6136968 C172.666095,18.1371386 168.208144,19.7052288 164.232797,24.3830478 C161.977585,27.0367676 160.232936,30.2604987 159,34.0389664 C161.123837,34.9360823 162.814863,36.6248808 163.680101,38.7205109 Z" id="Path"></path>
                <path d="M174.1291,70.9920041 C174.370601,72.7816544 173.113,74.4339561 171.325665,74.6757198 C171.17912,74.6955549 171.031079,74.7052853 170.884907,74.7052853 L170.884533,74.7052853 C170.188441,74.7052853 169.536462,74.4811112 169,74.099379 L172.97094,94.1455589 C172.97094,96.6133452 175.439787,98.6136968 178.484349,98.6136968 C181.530406,98.6136968 184,96.612971 184,94.1455589 L184,67.6222818 C179.947189,67.5253518 176.291771,66.8427248 173.179917,65.6136968 C173.544786,67.2525255 173.865542,69.0395562 174.1291,70.9920041 Z" id="Path"></path>
                <path d="M186.362587,88.6177818 L189.886576,68.637637 C189.880455,68.637637 189.874717,68.637637 189.868596,68.637257 C189.767222,68.6342169 189.668144,68.6228169 189.5683,68.6136968 C187.812044,68.9192187 185.951736,69.0993398 184,69.1457001 L184,96.0768485 C184,98.5825841 186.527081,100.613697 189.643661,100.613697 C192.759476,100.613697 195.286557,98.5822041 195.286557,96.0768485 L196,92.5029261 C190.390385,91.1094574 187.298671,89.2064055 187.098601,89.0806247 L186.362587,88.6177818 Z" id="Path"></path>
                <circle id="Oval" cx="183.5" cy="11.1136968" r="10.5"></circle>
                <circle id="Oval" cx="132.5" cy="11.1136968" r="8.5"></circle>
                <path d="M118.543689,59.6136968 C118.763019,59.3281439 118.9188,59.0094117 119,58.6698544 C118.164607,54.9707262 117.120918,51.9976578 116,49.6136968 L118.543689,59.6136968 Z" id="Path"></path>
                <path d="M119.239956,41.0484691 C119.706939,37.3922329 120.359809,34.7062971 121.04517,32.7420936 L121.04517,44.0869732 C123.29961,48.4114663 125.322069,54.5349427 126.494438,63.2134326 C126.758155,65.1691538 125.343227,66.969981 123.339658,67.2277689 C123.180219,67.2484214 123.017757,67.2587477 122.85794,67.2587477 C122.202426,67.2587477 121.583183,67.0850452 121.04517,66.7833706 L121.04517,74.8061426 L121.051971,74.837859 L121.04517,74.8419157 L121.04517,96.0542811 C121.04517,98.5731527 123.137148,100.613697 125.716133,100.613697 C128.295873,100.613697 130.387851,98.5731527 130.387851,96.0542811 L130.387851,58.9516346 L132.139037,58.9516346 L132.139037,96.0539123 C132.139037,98.5727839 134.231015,100.613328 136.81,100.613328 C139.38974,100.613328 141.481718,98.5727839 141.481718,96.0539123 L141.481718,76.9042188 C140.981487,77.1996238 140.397758,77.368532 139.780404,77.3689008 C139.632677,77.3689008 139.483439,77.3589433 139.33609,77.339766 C137.528609,77.1011554 136.258008,75.4729244 136.5017,73.7097143 C137.532387,66.2644757 139.421099,61.2359524 141.481718,57.8397169 L141.481718,32.6635402 C142.82486,36.498642 144.050879,43.1258927 143.979472,54.5120774 C145.739348,52.6404415 147.426682,51.7059143 148.632299,51.2416011 C149.002939,51.0915014 149.453298,50.9428769 150,50.8090042 C149.993199,50.4464785 149.985643,50.0850592 149.97582,49.7291717 C147.792788,48.18687 146.368414,45.6809062 146.368414,42.855197 C146.368414,40.5812055 147.291801,38.5148457 148.789471,36.9902461 C147.689644,30.90955 145.859872,26.5629291 143.305445,23.9994333 C141.75488,22.4434861 140.270811,21.9002507 139.3274,21.7162219 C139.082952,21.6513139 138.827169,21.6136968 138.561563,21.6136968 L123.964569,21.6136968 C123.697074,21.6136968 123.439024,21.6516827 123.193065,21.7176971 C122.248898,21.9013571 120.772764,22.4420109 119.221065,23.9994333 C116.861215,26.3678364 115.119097,30.2564136 114,35.628654 C115.600814,36.7099617 117.441165,38.4023631 119.239956,41.0484691 Z" id="Path"></path>
                <circle id="Oval" cx="280.5" cy="11.1136968" r="8.5"></circle>
                <path d="M264.96966,40.0419408 C264.96966,43.0310124 263.403233,45.673418 261.020671,47.2503792 C261.013015,47.4034285 261.00689,47.5590593 261,47.713215 L261.642725,47.713215 C261.754886,47.7032576 261.868196,47.6973569 261.982654,47.6973569 C262.077206,47.6973569 262.17061,47.7028888 262.264396,47.7095271 L262.331004,47.713215 C262.46843,47.713215 262.603559,47.7220661 262.73754,47.7368178 C264.288272,47.8769594 265.766655,48.4862063 267.063589,49.4992821 C267.328488,41.1911014 268.385788,35.9852119 269.532664,32.7420416 L269.532664,52.2711343 C272.299176,56.6070399 273.495817,63.8527264 273.002767,73.4715993 C272.908598,75.3015528 271.404185,76.7475922 269.532664,76.8615494 L269.532664,96.0543024 C269.532664,98.5731622 271.65224,100.613697 274.265249,100.613697 C276.879024,100.613697 278.9986,98.5731622 278.9986,96.0543024 L278.9986,58.9514603 L280.772889,58.9514603 L280.772889,96.0535648 C280.772889,98.5724246 282.892465,100.612959 285.505474,100.612959 C288.119248,100.612959 290.238825,98.5724246 290.238825,96.0535648 L290.238825,67.9861643 C289.713237,68.2413694 289.135589,68.3947875 288.530761,68.4287165 C288.445013,68.4335108 288.3585,68.4360924 288.273135,68.4360924 C285.967134,68.4364612 284.05427,66.6975997 283.919524,64.4774626 C282.956011,48.6123337 285.083243,38.1511364 290.238825,33.3730474 L290.238825,32.6634886 C290.300456,32.8375592 290.361704,33.0193744 290.422953,33.2048775 C292.555162,31.3111227 294.675504,30.7855919 296,30.6649965 C294.968731,27.7891445 293.664523,25.5623692 292.086612,23.9994222 C290.515591,22.4434823 289.011943,21.9002494 288.056086,21.7162214 C287.808413,21.6513137 287.549256,21.6136968 287.280146,21.6136968 L272.490578,21.6136968 C272.219554,21.6136968 271.9581,21.6516825 271.708895,21.7176966 C270.752272,21.9013558 269.256663,22.4420071 267.684494,23.9994222 C265.500224,26.1631338 263.839628,29.5995519 262.703853,34.2732724 C264.112566,35.813723 264.96966,37.8328675 264.96966,40.0419408 Z" id="Path"></path>
                <path d="M41.0031716,56.6122597 C43.7091502,56.8237546 45.9898513,58.5591071 46.9778991,60.9599393 C46.4184198,49.0928851 47.8233346,42.6557813 49.3938992,39.3980299 L49.3938992,71.5292168 C50.9205831,73.7003218 52.4604311,77.4809762 52.6812975,83.9855397 C52.7087229,84.7884912 52.4209385,85.5542487 51.8706009,86.1413295 C51.3202634,86.7284103 50.5739253,87.0668022 49.7683481,87.093786 L49.6652284,87.0956093 C49.5734445,87.0956093 49.483489,87.0905042 49.3938992,87.082482 L49.3938992,94.1055727 C49.3938992,96.596108 51.4186294,98.6136968 53.9150774,98.6136968 C56.4118912,98.6136968 58.4366214,96.596108 58.4366214,94.1055727 L58.4366214,61.1885727 L60.1315147,61.1885727 L60.1315147,94.1055727 C60.1315147,96.596108 62.1562449,98.6136968 64.6523273,98.6136968 C67.149141,98.6136968 69.1738712,96.596108 69.1738712,94.1055727 L69.1738712,74.9131359 C67.8281953,74.4613389 66.8383191,73.2291986 66.7640876,71.7381592 C66.3508773,63.3928605 67.1794918,56.8525617 69.1738712,52.4786275 L69.1738712,39.3987592 C70.1037771,41.3270096 70.9748096,44.3703489 71.415811,48.9918781 C71.4596917,48.9441094 71.5028411,48.8937882 71.5474532,48.8471134 C72.9765024,47.3506044 74.7218586,46.4663367 76.5952002,46.2905772 C76.6972229,46.2785438 76.8266711,46.2697923 76.9583133,46.2697923 L77,46.2672398 C76.920649,45.6757832 76.8336189,45.0985479 76.7378126,44.5399095 C75.3116888,42.9989136 74.4384622,40.941943 74.4384622,38.6847814 C74.4384622,38.1658895 74.4870967,37.6583016 74.5755895,37.1642057 C73.7546541,35.4073391 72.7669719,33.98303 71.6107146,32.8996654 C69.5589246,30.9772493 67.5546721,30.646515 66.5253032,30.6224483 C66.4664299,30.6188019 66.4079223,30.6136968 66.3479519,30.6136968 L52.2201841,30.6136968 C52.1587511,30.6136968 52.0984151,30.6191665 52.0373477,30.622813 C51.0065162,30.6483382 49.005189,30.9805311 46.9570558,32.8996654 C42.9039387,36.6970936 40.9091937,44.66316 41.0031716,56.6122597 Z" id="Path"></path>
                <circle id="Oval" cx="59.5" cy="21.1136968" r="8.5"></circle>
                <path d="M106,77.3033441 L106,95.8615352 C106,97.9338541 107.3437,99.6136968 109,99.6136968 C110.6569,99.6136968 112,97.9338541 112,95.8615352 L112,76.6136968 C110.3008,76.9952916 108.298,77.2680738 106,77.3033441 Z" id="Path"></path>
                <path d="M101,77.3037193 C98.702,77.268449 96.6992,76.9952916 95,76.6136968 L95,95.8615352 C95,97.9338541 96.3443,99.6136968 98,99.6136968 C99.6572,99.6136968 101,97.9338541 101,95.8615352 L101,77.3037193 Z" id="Path"></path>
                <path d="M93,75.6136968 L93,76.3716172 C93.3074674,76.4538674 93.6410256,76.5353053 94,76.6136968 C93.548583,76.3968 93.1929825,76.041601 93,75.6136968 Z" id="Path"></path>
                <path d="M86,46.0472713 L87.3348776,46.0472713 C87.4416824,46.0374119 87.5495807,46.0315694 87.6585726,46.0315694 C87.7486094,46.0315694 87.8375527,46.0370468 87.9268604,46.0436197 L87.9902872,46.0472713 C88.1211504,46.0472713 88.2498264,46.0560352 88.377409,46.0706417 C89.0302669,46.1319889 89.669273,46.2871827 90.2867724,46.5230772 C91.266606,44.3383138 92.2876307,42.7115177 93.2466866,41.5024668 L92.0353818,47.46556 C92.5081661,47.7996831 92.9612663,48.1834682 93.3841112,48.6282353 C97.0522907,52.4890917 98.7013857,60.4160254 98.1524164,71.5520014 C98.0631087,73.3635694 96.6309038,74.7950039 94.849123,74.9082041 C97.050468,75.3193763 99.6979874,75.6136968 102.781839,75.6136968 C113.105087,75.6136968 118.577647,72.3272401 118.577647,72.3272401 L112.319907,41.5170733 C114.829273,44.6965376 117.777523,50.7443483 119.281174,62.1677068 C119.438647,63.3621512 120.456755,64.2312365 121.627598,64.2312365 C121.730758,64.2312365 121.835011,64.2242984 121.939993,64.2104222 C123.23769,64.0391613 124.150087,62.8465427 123.979491,61.5469316 C120.693694,36.5866578 110.60775,33.7095476 108.727913,33.3893006 C108.103123,33.2326462 105.46253,32.6136968 102.781474,32.6136968 C100.100784,32.6136968 97.4598256,33.2326462 96.8350359,33.3893006 C95.9649231,33.5375563 93.3367234,34.2353806 90.4387778,37.4152101 C90.4796042,37.7551758 90.5029336,38.1006189 90.5029336,38.4515395 C90.5029336,41.7233897 88.6806908,44.5763993 86,46.0472713 Z" id="Path"></path>
                <circle id="Oval" cx="104.5" cy="24.1136968" r="7.5"></circle>
                <path d="M74.8104027,54.5859836 L74.8104027,68.2645103 L91.1903154,68.2645103 L91.1903154,54.5859836 C92.3242983,56.8280719 93.7114345,61.5890231 93.2360091,71.1745765 C93.1724515,72.4565361 94.1645967,73.5475427 95.452267,73.6108361 C95.491407,73.612624 95.530547,73.6136968 95.5689689,73.6136968 C96.8052903,73.6136968 97.8365756,72.6471315 97.8983378,71.4041492 C98.4233166,60.8194898 96.9079879,53.3494379 93.5168117,49.8010739 C92.2977262,48.5259085 90.8445189,47.7903462 89.284664,47.6444495 C89.2027931,47.6351522 89.119845,47.6290732 89.0354606,47.6290732 L88.9956025,47.6290732 C88.8997274,47.6247821 88.8052887,47.6136968 88.7086954,47.6136968 C88.6203611,47.6136968 88.5338222,47.6194182 88.4480015,47.6290732 L77.5516394,47.6290732 C77.4658187,47.6197758 77.3792798,47.6136968 77.2909455,47.6136968 C77.1943522,47.6136968 77.0999135,47.6244245 77.0040385,47.6290732 L76.9638212,47.6290732 C76.8794368,47.6290732 76.7964887,47.6351522 76.714977,47.6444495 C75.1554811,47.7903462 73.7019147,48.5259085 72.4831883,49.8010739 C69.0920121,53.3490803 67.5766834,60.8194898 68.1016622,71.4041492 C68.1634244,72.6471315 69.1947097,73.6136968 70.4310311,73.6136968 C70.469453,73.6136968 70.5089521,73.6129816 70.547733,73.6108361 C71.8354033,73.5475427 72.8275485,72.4565361 72.7639909,71.1745765 C72.2889246,61.5890231 73.6764198,56.8280719 74.8104027,54.5859836 Z" id="Path"></path>
                <path d="M92,70.6136968 L75,70.6136968 L75,95.8311515 C75,97.9198457 76.7314539,99.6136968 78.8676342,99.6136968 C81.0019511,99.6136968 82.7334049,97.9198457 82.7334049,95.8311515 L82.7334049,77.8149339 L84.2662224,77.8149339 L84.2662224,95.8311515 C84.2662224,97.9198457 85.9976763,99.6136968 88.1334839,99.6136968 C90.2685461,99.6136968 92,97.9198457 92,95.8311515 L92,70.6136968 L92,70.6136968 Z" id="Path"></path>
                <circle id="Oval" cx="82.5" cy="39.1136968" r="7.5"></circle>
                <path d="M154,84.3654027 C152.059757,84.294231 150.382024,83.9915675 149,83.6136968 L149,95.6296187 C149,97.2772084 150.119206,98.6136968 151.5,98.6136968 C152.880794,98.6136968 154,97.2772084 154,95.6296187 L154,84.3654027 L154,84.3654027 Z" id="Path"></path>
                <path d="M155,84.3657696 L155,95.6296187 C155,97.2772084 156.119683,98.6136968 157.500307,98.6136968 C158.880317,98.6136968 160,97.2772084 160,95.6296187 L160,83.6136968 C158.617839,83.9919344 156.940312,84.2945978 155,84.3657696 Z" id="Path"></path>
                <circle id="Oval" cx="155.5" cy="42.1136968" r="7.5"></circle>
                <path d="M161.285554,51.5043642 C160.66012,51.2692584 159.766859,51.0318737 158.517127,50.8791879 C157.652278,50.7386561 156.580592,50.6136968 155.499814,50.6136968 C154.419037,50.6136968 153.34773,50.7386561 152.48288,50.8791879 C151.229739,51.0322535 150.334963,51.2703978 149.709528,51.5058835 C146.907386,52.4915047 140.339759,56.6223783 138.019856,73.8329589 C137.858857,75.0282383 138.694537,76.1281841 139.886689,76.2896057 C141.083385,76.4502676 142.176285,75.6127744 142.337284,74.4178748 C143.274867,67.4615536 144.909861,63.0541743 146.540308,60.2659486 C145.056086,67.1463067 143.219181,76.8912334 143.219181,82.9743588 C143.219181,82.9743588 147.790798,85.6136968 155.500193,85.6136968 C163.209588,85.6136968 167.781205,82.9743588 167.781205,82.9743588 C167.781205,76.8908536 165.943542,67.1455471 164.45932,60.2651889 C166.090146,63.0530348 167.72514,67.4607939 168.663102,74.4178748 C168.810842,75.5140224 169.745394,76.3097359 170.818974,76.3093561 C170.915953,76.3093561 171.014446,76.3028992 171.113319,76.2896057 C172.305091,76.1281841 173.14115,75.0282383 172.980151,73.8329589 C170.658733,56.6136425 164.085423,52.4873268 161.285554,51.5043642 Z" id="Path"></path>
                <path d="M50.0165923,85.6007215 C50.0392463,85.6007215 50.0619004,85.6003461 50.084932,85.5995954 C51.179123,85.5628091 52.0362016,84.6510337 51.9988224,83.5632095 C51.5902942,71.5817528 46.6955074,69.1654917 46.1385951,68.9293835 C46.1359521,68.9282574 46.1329316,68.9278821 46.1302886,68.926756 C45.875808,68.7330647 45.5624269,68.6136968 45.2192179,68.6136968 L44.4946656,68.6136968 C43.3461048,69.3655643 41.9744016,69.8066248 40.4996224,69.8066248 C39.0248432,69.8066248 37.6527625,69.3655643 36.5045793,68.6136968 L35.7804045,68.6136968 C35.434175,68.6136968 35.1181509,68.7356923 34.8625376,68.9327619 L34.8614049,68.9297589 C34.3044926,69.1658671 29.4100834,71.5821281 29.0011776,83.5635848 C28.9637984,84.6510337 29.820877,85.5631844 30.915068,85.5999708 C30.9380996,85.6007215 30.9607537,85.6010969 30.9834077,85.6010969 C32.0470157,85.6010969 32.9267483,84.7621434 32.9633724,83.6972168 C33.0860819,80.0940336 33.6380858,77.6124581 34.270134,75.9176595 L34.270134,95.7984167 C34.270134,97.3532021 35.5376285,98.6136968 37.1018913,98.6136968 C38.666154,98.6136968 39.9336485,97.3532021 39.9336485,95.7984167 L39.9336485,86.7898958 L41.0663515,86.7898958 L41.0663515,95.7984167 C41.0663515,97.3532021 42.333846,98.6136968 43.8981087,98.6136968 C45.4623715,98.6136968 46.729866,97.3532021 46.729866,95.7984167 L46.729866,75.8865037 C47.3588937,77.5790501 47.9127854,80.0696345 48.0366276,83.6972168 C48.0728741,84.7621434 48.9526067,85.6007215 50.0165923,85.6007215 Z" id="Path"></path>
                <circle id="Oval" cx="39" cy="64.6136968" r="6"></circle>
                <path d="M189.208172,67.2392257 C189.240457,67.2403228 189.272375,67.2406884 189.30466,67.2406884 C189.388674,67.2406884 189.470853,67.234472 189.553399,67.2282556 L192.281833,51.7059261 C191.852958,50.0512689 192.008512,48.2408363 192.870297,46.6099477 C193.24304,45.9045701 193.721442,45.2924384 194.270284,44.7717242 C194.135641,44.9750368 194.009437,45.1860284 193.893138,45.4057961 C191.980997,49.0251987 193.37438,53.5031946 197.005321,55.4090671 C199.099431,56.5079057 201.4775,56.5057117 203.484295,55.6167677 C201.343959,57.218037 198.389532,57.5566475 195.863979,56.2314591 C194.659902,55.5995812 193.718874,54.6696821 193.068408,53.584739 L187.17643,87.1035219 C187.17643,87.1035219 194.327516,91.6136968 206.987564,91.6136968 C213.549084,91.6136968 218.626604,90.4022318 222,89.2350129 L222,63.991344 C221.831238,64.5939683 221.525267,65.1552719 221.095658,65.6368594 C220.353475,66.4687589 219.329899,66.9627792 218.214606,67.0278684 C218.132427,67.0326221 218.049513,67.0351818 217.967701,67.0351818 C215.757659,67.0355475 213.924395,65.311413 213.795256,63.1100791 C213.668685,60.9526256 213.599713,58.899388 213.584304,56.9441501 C212.46791,56.7540016 211.405813,56.3020334 210.490832,55.6171333 C211.45901,56.0460644 212.511935,56.2665634 213.579902,56.257056 C213.567428,45.9400401 215.139111,38.5209597 218.273306,34.1098814 C215.949166,32.5927162 214.008409,32.5963729 213.580268,32.6186788 C213.503959,32.6227012 213.429117,32.6333056 213.354275,32.6424474 C213.335564,32.6420817 213.317221,32.639522 213.298143,32.639522 L212.868168,32.639522 C211.23375,33.880972 209.195771,34.6203569 206.98683,34.6203569 C204.777888,34.6203569 202.73991,33.880972 201.105491,32.639522 L200.675883,32.639522 C200.656806,32.639522 200.638462,32.6420817 200.619752,32.6424474 C200.54491,32.6333056 200.470068,32.6227012 200.393758,32.6186788 C199.872432,32.5908879 197.130791,32.5864999 194.176364,35.2964809 C189.165248,39.8922225 186.414435,49.5009354 186.001337,63.8556804 C185.949974,65.6723294 187.385181,67.1873006 189.208172,67.2392257 Z" id="Path"></path>
                <path d="M207,93.3528229 C203.58512,93.3135268 200.575721,93.021956 198,92.6136968 L198.496744,95.831475 C198.496744,97.3682214 200.400247,98.6136968 202.747815,98.6136968 C205.095754,98.6136968 207,97.3682214 207,95.831475 L207,93.3528229 Z" id="Path"></path>
                <path d="M210,93.3528229 L210,95.831475 C210,97.3682214 211.904167,98.6136968 214.252009,98.6136968 C216.599481,98.6136968 218.503277,97.3682214 218.503277,95.831475 L219,92.6136968 C216.424385,93.021956 213.41474,93.3135268 210,93.3528229 Z" id="Path"></path>
                <ellipse id="Oval" cx="208" cy="24.1136968" rx="9" ry="8.5"></ellipse>
                <path d="M217.216259,62.7729615 C217.307305,64.3234382 218.596213,65.5198432 220.133761,65.5198432 C220.191168,65.5198432 220.249306,65.5183847 220.307444,65.5147382 C221.920316,65.4206594 223.151086,64.0404726 223.057114,62.4320171 C222.305343,49.6183407 223.761352,42.788148 225.395797,39.3980299 L225.395797,94.1055727 C225.395797,96.596108 227.420388,98.6136968 229.916664,98.6136968 C232.413306,98.6136968 234.437897,96.596108 234.437897,94.1055727 L234.437897,61.1885727 L236.132674,61.1885727 L236.132674,94.1055727 C236.132674,96.596108 238.157265,98.6136968 240.653176,98.6136968 C243.149818,98.6136968 245.174409,96.596108 245.174409,94.1055727 L245.174409,75.0932712 C243.354581,75.014143 241.880655,73.5712369 241.789975,71.7385239 C241.314998,62.1439464 242.482511,54.9378032 245.174409,50.6637821 L245.174409,39.3987592 C246.046113,41.2070409 246.866992,43.9943984 247.329171,48.1455337 C248.600162,47.0774842 250.064215,46.4364357 251.61968,46.2905772 C251.721696,46.2785438 251.851135,46.2697923 251.982768,46.2697923 L252.046757,46.2661458 C252.13634,46.2595822 252.225558,46.2541125 252.315873,46.2541125 C252.425568,46.2541125 252.533434,46.2599468 252.640203,46.2697923 L253,46.2697923 C252.968554,46.0360539 252.937109,45.8019509 252.903103,45.5733176 C250.81489,43.9940338 249.46309,41.4943823 249.46309,38.6851461 C249.46309,37.712634 249.627266,36.7780451 249.926,35.9047169 C249.24809,34.7145108 248.476939,33.7113684 247.610719,32.8996654 C245.55907,30.9772493 243.554956,30.646515 242.525658,30.6224483 C242.466788,30.6188019 242.408285,30.6136968 242.348318,30.6136968 L228.221522,30.6136968 C228.160093,30.6136968 228.099761,30.6191665 228.038698,30.622813 C227.007937,30.6483382 225.006748,30.9805311 222.958755,32.8996654 C218.244826,37.3162633 216.312378,47.3673781 217.216259,62.7729615 Z" id="Path"></path>
                <circle id="Oval" cx="234.5" cy="21.1136968" r="8.5"></circle>
                <path d="M296.86739,30.6228129 C295.852627,30.6483379 293.882498,30.9805272 291.866293,32.8996409 C287.225168,37.3169207 285.323074,47.3675631 286.212925,62.7733459 C286.302559,64.323806 287.571461,65.5201982 289.085146,65.5201982 C289.141661,65.5201982 289.198897,65.5187396 289.256132,65.5150932 C290.843971,65.4210154 292.055638,64.0408434 291.963125,62.4324051 C291.223022,49.6188662 292.656432,42.7887467 294.265509,39.398665 L294.265509,94.105621 C294.265509,96.5961296 296.258676,98.6136968 298.716208,98.6136968 C301.1741,98.6136968 303.167267,96.5961296 303.167267,94.105621 L303.167267,61.188974 L304.835739,61.188974 L304.835739,94.105621 C304.835739,96.5961296 306.828907,98.6136968 309.286079,98.6136968 C311.74397,98.6136968 313.737138,96.5961296 313.737138,94.105621 L313.737138,86.9604504 C313.458159,87.0476 313.161542,87.0953682 312.853405,87.0953682 L312.753693,87.0939096 C311.958874,87.0665614 311.22417,86.7281731 310.682412,86.1410986 C310.140653,85.5540241 309.857355,84.7882748 309.884353,83.9849673 C310.132014,76.5852761 312.059666,72.7105845 313.737138,70.7214594 L313.737138,39.3990296 C315.227424,42.5386019 316.565081,48.6314141 316.167672,59.6895639 C317.417496,57.8174891 319.532334,56.584268 321.92651,56.584268 C321.950269,56.584268 321.973307,56.5875498 321.997065,56.5879144 C322.086698,44.6524347 320.123049,36.6948405 316.135634,32.8996409 C314.115829,30.9772454 312.14282,30.6465146 311.129497,30.6224482 C311.071542,30.6188018 311.013946,30.6136968 310.954911,30.6136968 L297.047376,30.6136968 C296.98654,30.6136968 296.927145,30.6188018 296.86739,30.6228129 Z" id="Path"></path>
                <circle id="Oval" cx="304.5" cy="21.1136968" r="8.5"></circle>
                <path d="M250,70.6136968 L250,95.8311515 C250,97.9198457 251.731454,99.6136968 253.867634,99.6136968 C256.001951,99.6136968 257.733405,97.9198457 257.733405,95.8311515 L257.733405,77.8149339 L259.266222,77.8149339 L259.266222,95.8311515 C259.266222,97.9198457 260.997676,99.6136968 263.133484,99.6136968 C265.268546,99.6136968 267,97.9198457 267,95.8311515 L267,70.6136968 L250,70.6136968 L250,70.6136968 Z" id="Path"></path>
                <path d="M270.568969,73.6136968 C271.80529,73.6136968 272.836576,72.6471315 272.898338,71.4041492 C273.423317,60.8194898 271.907988,53.3494379 268.516812,49.8010739 C267.297726,48.5259085 265.844519,47.7903462 264.284664,47.6444495 C264.202793,47.6351522 264.119845,47.6290732 264.035461,47.6290732 L263.995602,47.6290732 C263.899727,47.6247821 263.805289,47.6136968 263.708695,47.6136968 C263.620361,47.6136968 263.533822,47.6194182 263.448001,47.6290732 L252.551639,47.6290732 C252.465819,47.6197758 252.37928,47.6136968 252.290945,47.6136968 C252.194352,47.6136968 252.099914,47.6244245 252.004038,47.6290732 L251.963821,47.6290732 C251.879437,47.6290732 251.796489,47.6351522 251.714977,47.6444495 C250.155481,47.7903462 248.701915,48.5259085 247.483188,49.8010739 C244.092012,53.3490803 242.576683,60.8194898 243.101662,71.4041492 C243.163424,72.6471315 244.19471,73.6136968 245.431031,73.6136968 C245.469453,73.6136968 245.508952,73.6129816 245.547733,73.6108361 C246.835403,73.5475427 247.827549,72.4565361 247.763991,71.1745765 C247.288566,61.5886655 248.675702,56.8280719 249.809685,54.585626 L249.809685,68.2641527 L266.189597,68.2641527 L266.189597,54.585626 C267.32358,56.8277143 268.710716,61.5886655 268.235291,71.1742189 C268.171733,72.4561785 269.163879,73.5471851 270.451549,73.6104785 C270.491766,73.6129816 270.530547,73.6136968 270.568969,73.6136968 Z" id="Path"></path>
                <circle id="Oval" cx="258.5" cy="39.1136968" r="7.5"></circle>
                <path d="M326.495043,68.6136968 C325.346482,69.3655643 323.974779,69.8066248 322.5,69.8066248 C321.025221,69.8066248 319.65314,69.3655643 318.504957,68.6136968 L317.780405,68.6136968 C317.434175,68.6136968 317.118151,68.7356923 316.862538,68.9327619 L316.861405,68.9297589 C316.304493,69.1658671 311.410083,71.5821281 311.001178,83.5635848 C310.963798,84.6510337 311.820877,85.5631844 312.915068,85.5999708 C312.9381,85.6007215 312.960754,85.6010969 312.983408,85.6010969 C314.047016,85.6010969 314.926748,84.7621434 314.963372,83.6972168 C315.086082,80.0940336 315.638086,77.6124581 316.270134,75.9176595 L316.270134,95.7984167 C316.270134,97.3532021 317.537629,98.6136968 319.101891,98.6136968 C320.666154,98.6136968 321.933649,97.3532021 321.933649,95.7984167 L321.933649,86.7898958 L323.066351,86.7898958 L323.066351,95.7984167 C323.066351,97.3532021 324.333846,98.6136968 325.898109,98.6136968 C327.462371,98.6136968 328.729866,97.3532021 328.729866,95.7984167 L328.729866,75.8865037 C329.358894,77.5790501 329.912785,80.0696345 330.036628,83.6972168 C330.073252,84.7621434 330.952984,85.6010969 332.016592,85.6010969 C332.039246,85.6010969 332.0619,85.6007215 332.084932,85.5999708 C333.179123,85.5631844 334.036202,84.651409 333.998822,83.5635848 C333.590294,71.5821281 328.695507,69.1658671 328.138595,68.9297589 C328.135952,68.9286328 328.132932,68.9282574 328.130289,68.9271313 C327.875808,68.7334401 327.562427,68.6140722 327.219218,68.6140722 L326.495043,68.6140722 L326.495043,68.6136968 Z" id="Path"></path>
                <circle id="Oval" cx="323" cy="64.6136968" r="6"></circle>
            </g>
            <g id="noun_talk_1956196" transform="translate(294.000000, 146.000000)" fill="#000000" fill-rule="nonzero">
                <path d="M128.562566,1 L9.29442692,1 C4.71819138,1 1,4.70708821 1,9.26965831 L1,78.5636917 C1,83.1262619 4.71819138,86.8333501 9.29442692,86.8333501 L23.595163,86.8333501 L23.595163,108.648138 C23.595163,115.206833 31.6035752,118.48618 36.1798107,113.78103 L63.2082019,86.6907697 L128.705573,86.6907697 C133.281809,86.6907697 137,82.9836815 137,78.4211114 L137,9.26965831 C136.856993,4.70708821 133.138801,1 128.562566,1 Z" id="Path"></path>
            </g>
            <g id="noun_talk_1956196" transform="translate(86.500000, 58.000000) scale(-1, 1) translate(-86.500000, -58.000000) " fill="#000000" fill-rule="nonzero">
                <path d="M162.267087,0 L10.5509989,0 C4.72975815,0 0,3.73932376 0,8.34156838 L0,78.2381586 C0,82.8404033 4.72975815,86.579727 10.5509989,86.579727 L28.7423764,86.579727 L28.7423764,108.584209 C28.7423764,115.199936 38.9295478,118.507799 44.7507886,113.761734 L79.1324921,86.4359069 L162.449001,86.4359069 C168.270242,86.4359069 173,82.6965831 173,78.0943385 L173,8.34156838 C172.818086,3.73932376 168.088328,0 162.267087,0 Z" id="Path"></path>
            </g>
            <g id="noun_talk_1956196" transform="translate(231.000000, 29.000000)" fill="#000000" fill-rule="nonzero">
                <path d="M179.150368,0 L11.6487907,0 C5.22187171,0 0,3.77155931 0,8.41347846 L0,78.9126255 C0,83.5545447 5.22187171,87.326104 11.6487907,87.326104 L31.7329127,87.326104 L31.7329127,109.52028 C31.7329127,116.193039 42.980021,119.529418 49.4069401,114.742439 L87.3659306,87.181044 L179.351209,87.181044 C185.778128,87.181044 191,83.4094847 191,78.7675655 L191,8.41347846 C190.799159,3.77155931 185.577287,0 179.150368,0 Z" id="Path"></path>
            </g>
            <path d="M346.575,207.225 C344.62499,206.958332 342.795842,206.425004 341.0875,205.625 C339.379158,204.824996 337.925006,203.833339 336.725,202.65 L338.625,199.825 C338.791668,199.574999 339.012499,199.370834 339.2875,199.2125 C339.562501,199.054166 339.849999,198.975 340.15,198.975 C340.516668,198.975 340.908331,199.104165 341.325,199.3625 C341.741669,199.620835 342.216664,199.924998 342.75,200.275 C343.283336,200.625002 343.891663,200.974998 344.575,201.325 C345.258337,201.675002 346.066662,201.933333 347,202.1 L347.95,190.9 C346.766661,190.566665 345.595839,190.175002 344.4375,189.725 C343.279161,189.274998 342.237505,188.67917 341.3125,187.9375 C340.387495,187.19583 339.641669,186.258339 339.075,185.125 C338.50833,183.991661 338.225,182.575008 338.225,180.875 C338.225,179.608327 338.479164,178.370839 338.9875,177.1625 C339.495836,175.954161 340.233329,174.875005 341.2,173.925 C342.166672,172.974995 343.358326,172.19167 344.775,171.575 C346.191674,170.95833 347.816658,170.608334 349.65,170.525 L349.925,167.375 C349.958333,166.974998 350.124999,166.616668 350.425,166.3 C350.725002,165.983332 351.116664,165.825 351.6,165.825 L353.875,165.825 L353.45,170.75 C355.216676,171.033335 356.74166,171.53333 358.025,172.25 C359.30834,172.96667 360.424995,173.774995 361.375,174.675 L359.875,176.95 C359.641665,177.283335 359.408335,177.533333 359.175,177.7 C358.941665,177.866668 358.658335,177.95 358.325,177.95 C358.074999,177.95 357.779168,177.870834 357.4375,177.7125 C357.095832,177.554166 356.704169,177.362501 356.2625,177.1375 C355.820831,176.912499 355.333336,176.683335 354.8,176.45 C354.266664,176.216666 353.675003,176.025001 353.025,175.875 L352.15,186.225 C353.350006,186.591668 354.537494,186.995831 355.7125,187.4375 C356.887506,187.879169 357.945829,188.449996 358.8875,189.15 C359.829171,189.850004 360.591664,190.720828 361.175,191.7625 C361.758336,192.804172 362.05,194.108326 362.05,195.675 C362.05,197.225008 361.791669,198.67916 361.275,200.0375 C360.758331,201.39584 360.004172,202.595828 359.0125,203.6375 C358.020828,204.679172 356.800007,205.524997 355.35,206.175 C353.899993,206.825003 352.241676,207.216666 350.375,207.35 L350.075,211.025 C350.041667,211.408335 349.875001,211.762498 349.575,212.0875 C349.274998,212.412502 348.883336,212.575 348.4,212.575 L346.125,212.575 L346.575,207.225 Z M356.2,196.625 C356.2,195.991664 356.087501,195.437502 355.8625,194.9625 C355.637499,194.487498 355.320835,194.066668 354.9125,193.7 C354.504165,193.333331 354.025003,193.016668 353.475,192.75 C352.924997,192.483332 352.325003,192.241668 351.675,192.025 L350.825,202.175 C352.591676,201.941665 353.929162,201.345838 354.8375,200.3875 C355.745838,199.429162 356.2,198.175008 356.2,196.625 Z M344.05,180.275 C344.05,180.908336 344.158332,181.466664 344.375,181.95 C344.591668,182.433336 344.895831,182.862498 345.2875,183.2375 C345.679169,183.612502 346.141664,183.945832 346.675,184.2375 C347.208336,184.529168 347.791664,184.791665 348.425,185.025 L349.2,175.775 C348.283329,175.891667 347.500003,176.087499 346.85,176.3625 C346.199997,176.637501 345.666669,176.974998 345.25,177.375 C344.833331,177.775002 344.529168,178.220831 344.3375,178.7125 C344.145832,179.204169 344.05,179.724997 344.05,180.275 Z M375.575,207.225 C373.62499,206.958332 371.795842,206.425004 370.0875,205.625 C368.379158,204.824996 366.925006,203.833339 365.725,202.65 L367.625,199.825 C367.791668,199.574999 368.012499,199.370834 368.2875,199.2125 C368.562501,199.054166 368.849998,198.975 369.15,198.975 C369.516668,198.975 369.908331,199.104165 370.325,199.3625 C370.741669,199.620835 371.216664,199.924998 371.75,200.275 C372.283336,200.625002 372.891663,200.974998 373.575,201.325 C374.258337,201.675002 375.066662,201.933333 376,202.1 L376.95,190.9 C375.766661,190.566665 374.595839,190.175002 373.4375,189.725 C372.279161,189.274998 371.237505,188.67917 370.3125,187.9375 C369.387495,187.19583 368.641669,186.258339 368.075,185.125 C367.50833,183.991661 367.225,182.575008 367.225,180.875 C367.225,179.608327 367.479164,178.370839 367.9875,177.1625 C368.495836,175.954161 369.233328,174.875005 370.2,173.925 C371.166672,172.974995 372.358326,172.19167 373.775,171.575 C375.191674,170.95833 376.816658,170.608334 378.65,170.525 L378.925,167.375 C378.958333,166.974998 379.124999,166.616668 379.425,166.3 C379.725002,165.983332 380.116664,165.825 380.6,165.825 L382.875,165.825 L382.45,170.75 C384.216676,171.033335 385.74166,171.53333 387.025,172.25 C388.30834,172.96667 389.424995,173.774995 390.375,174.675 L388.875,176.95 C388.641665,177.283335 388.408335,177.533333 388.175,177.7 C387.941665,177.866668 387.658335,177.95 387.325,177.95 C387.074999,177.95 386.779168,177.870834 386.4375,177.7125 C386.095832,177.554166 385.704169,177.362501 385.2625,177.1375 C384.820831,176.912499 384.333336,176.683335 383.8,176.45 C383.266664,176.216666 382.675003,176.025001 382.025,175.875 L381.15,186.225 C382.350006,186.591668 383.537494,186.995831 384.7125,187.4375 C385.887506,187.879169 386.945829,188.449996 387.8875,189.15 C388.829171,189.850004 389.591664,190.720828 390.175,191.7625 C390.758336,192.804172 391.05,194.108326 391.05,195.675 C391.05,197.225008 390.791669,198.67916 390.275,200.0375 C389.758331,201.39584 389.004172,202.595828 388.0125,203.6375 C387.020828,204.679172 385.800007,205.524997 384.35,206.175 C382.899993,206.825003 381.241676,207.216666 379.375,207.35 L379.075,211.025 C379.041667,211.408335 378.875001,211.762498 378.575,212.0875 C378.274998,212.412502 377.883336,212.575 377.4,212.575 L375.125,212.575 L375.575,207.225 Z M385.2,196.625 C385.2,195.991664 385.087501,195.437502 384.8625,194.9625 C384.637499,194.487498 384.320835,194.066668 383.9125,193.7 C383.504165,193.333331 383.025003,193.016668 382.475,192.75 C381.924997,192.483332 381.325003,192.241668 380.675,192.025 L379.825,202.175 C381.591676,201.941665 382.929162,201.345838 383.8375,200.3875 C384.745838,199.429162 385.2,198.175008 385.2,196.625 Z M373.05,180.275 C373.05,180.908336 373.158332,181.466664 373.375,181.95 C373.591668,182.433336 373.895831,182.862498 374.2875,183.2375 C374.679169,183.612502 375.141664,183.945832 375.675,184.2375 C376.208336,184.529168 376.791664,184.791665 377.425,185.025 L378.2,175.775 C377.283329,175.891667 376.500003,176.087499 375.85,176.3625 C375.199997,176.637501 374.666669,176.974998 374.25,177.375 C373.833331,177.775002 373.529168,178.220831 373.3375,178.7125 C373.145832,179.204169 373.05,179.724997 373.05,180.275 Z" id="$$" fill="#FFFFFF" fill-rule="nonzero"></path>
            <g id="noun_Home_1998089" transform="translate(37.000000, 16.000000)" fill="#FFFFFF" fill-rule="nonzero">
                <path d="M44.1573731,18.3125493 L24.1669776,0.639305446 C23.2478789,-0.213101815 21.8117873,-0.213101815 20.835245,0.639305446 L12.4484699,8.08366219 L12.4484699,3.19652723 C12.4484699,2.62825572 11.9889205,2.11681137 11.3570402,2.11681137 L7.04876532,2.11681137 C6.47432866,2.11681137 5.95733568,2.57142857 5.95733568,3.19652723 L5.95733568,13.8232044 L0.844849461,18.3125493 C-0.878460499,19.8468824 0.212969142,22.6314128 2.51071576,22.6314128 L3.31492707,22.6314128 L3.31492707,51.5564325 C3.31492707,52.9202841 4.40635671,54 5.78500468,54 L16.8141884,54 C17.3311814,54 17.7332871,53.6022099 17.7332871,53.0907656 L17.7332871,40.9865825 C17.7332871,40.4751381 18.1353927,40.0773481 18.6523857,40.0773481 L26.1200622,40.0773481 C26.6370552,40.0773481 27.0391609,40.4751381 27.0391609,40.9865825 L27.0391609,53.0907656 C27.0391609,53.6022099 27.4412665,54 27.9582595,54 L39.1597742,54 C40.5384222,54 41.6298518,52.9202841 41.6298518,51.5564325 L41.6298518,22.6314128 L42.4340632,22.6314128 C44.7892534,22.6314128 45.8806831,19.8468824 44.1573731,18.3125493 Z M19.456597,32.8602999 C19.456597,33.4285714 18.9970477,33.9400158 18.3651674,33.9400158 L11.7591459,33.9400158 C11.1847092,33.9400158 10.6677162,33.4285714 10.6677162,32.8602999 L10.6677162,28.8255722 C10.6677162,28.2573007 11.1272656,27.7458564 11.7591459,27.7458564 L18.4226111,27.7458564 C18.9970477,27.7458564 19.5140407,28.2573007 19.5140407,28.8255722 L19.5140407,32.8602999 L19.456597,32.8602999 Z M34.3345063,32.8602999 C34.3345063,33.4285714 33.874957,33.9400158 33.2430767,33.9400158 L26.6370552,33.9400158 C26.0626185,33.9400158 25.5456256,33.4285714 25.5456256,32.8602999 L25.5456256,28.8255722 C25.5456256,28.2573007 26.0051749,27.7458564 26.6370552,27.7458564 L33.3005204,27.7458564 C33.874957,27.7458564 34.39195,28.2573007 34.39195,28.8255722 L34.39195,32.8602999 L34.3345063,32.8602999 Z" id="Shape"></path>
            </g>
            <g id="noun_Home_1998089" transform="translate(69.000000, 16.000000)" fill="#FFFFFF" fill-rule="nonzero">
                <path d="M42.1948232,18.3125493 L23.0928897,0.639305446 C22.2146399,-0.213101815 20.8423745,-0.213101815 19.9092341,0.639305446 L11.8952045,8.08366219 L11.8952045,3.19652723 C11.8952045,2.62825572 11.4560796,2.11681137 10.8522829,2.11681137 L6.73548686,2.11681137 C6.18658072,2.11681137 5.6925652,2.57142857 5.6925652,3.19652723 L5.6925652,13.8232044 L0.807300596,18.3125493 C-0.839417811,19.8468824 0.203503847,22.6314128 2.39912839,22.6314128 L3.16759698,22.6314128 L3.16759698,51.5564325 C3.16759698,52.9202841 4.21051864,54 5.52789336,54 L16.0668912,54 C16.5609067,54 16.945141,53.6022099 16.945141,53.0907656 L16.945141,40.9865825 C16.945141,40.4751381 17.3293753,40.0773481 17.8233908,40.0773481 L24.9591706,40.0773481 C25.4531861,40.0773481 25.8374204,40.4751381 25.8374204,40.9865825 L25.8374204,53.0907656 C25.8374204,53.6022099 26.2216547,54 26.7156702,54 L37.4193398,54 C38.7367146,54 39.7796362,52.9202841 39.7796362,51.5564325 L39.7796362,22.6314128 L40.5481048,22.6314128 C42.79862,22.6314128 43.8415416,19.8468824 42.1948232,18.3125493 Z M18.5918594,32.8602999 C18.5918594,33.4285714 18.1527345,33.9400158 17.5489377,33.9400158 L11.2365172,33.9400158 C10.687611,33.9400158 10.1935955,33.4285714 10.1935955,32.8602999 L10.1935955,28.8255722 C10.1935955,28.2573007 10.6327204,27.7458564 11.2365172,27.7458564 L17.6038283,27.7458564 C18.1527345,27.7458564 18.64675,28.2573007 18.64675,28.8255722 L18.64675,32.8602999 L18.5918594,32.8602999 Z M32.8085283,32.8602999 C32.8085283,33.4285714 32.3694034,33.9400158 31.7656066,33.9400158 L25.4531861,33.9400158 C24.9042799,33.9400158 24.4102644,33.4285714 24.4102644,32.8602999 L24.4102644,28.8255722 C24.4102644,28.2573007 24.8493893,27.7458564 25.4531861,27.7458564 L31.8204972,27.7458564 C32.3694034,27.7458564 32.8634189,28.2573007 32.8634189,28.8255722 L32.8634189,32.8602999 L32.8085283,32.8602999 Z" id="Shape"></path>
            </g>
            <path d="M127.925,31.125 C128.49167,30.6249975 129.112497,30.1500023 129.7875,29.7 C130.462503,29.2499978 131.191663,28.858335 131.975,28.525 C132.758337,28.191665 133.608329,27.9291676 134.525,27.7375 C135.441671,27.5458324 136.433328,27.45 137.5,27.45 C138.950007,27.45 140.270827,27.649998 141.4625,28.05 C142.654173,28.450002 143.674996,29.0208296 144.525,29.7625 C145.375004,30.5041704 146.033331,31.3999948 146.5,32.45 C146.966669,33.5000053 147.2,34.6749935 147.2,35.975 C147.2,37.241673 147.016669,38.3374954 146.65,39.2625 C146.283332,40.1875046 145.820836,40.9916633 145.2625,41.675 C144.704164,42.3583367 144.100003,42.9499975 143.45,43.45 C142.799997,43.9500025 142.183336,44.4208311 141.6,44.8625 C141.016664,45.3041689 140.512502,45.7374979 140.0875,46.1625 C139.662498,46.5875021 139.408334,47.066664 139.325,47.6 L138.75,51.25 L134.525,51.25 L134.1,47.175 C134.083333,47.0916662 134.075,47.0208336 134.075,46.9625 L134.075,46.75 C134.075,46.016663 134.258331,45.3791694 134.625,44.8375 C134.991669,44.2958306 135.449997,43.7875024 136,43.3125 C136.550003,42.8374976 137.141663,42.3750022 137.775,41.925 C138.408336,41.4749977 138.999997,40.9875026 139.55,40.4625 C140.100003,39.9374974 140.558332,39.34167 140.925,38.675 C141.291669,38.00833 141.475,37.2250045 141.475,36.325 C141.475,35.724997 141.362501,35.1875024 141.1375,34.7125 C140.912499,34.2374976 140.600002,33.8291684 140.2,33.4875 C139.799998,33.1458316 139.320836,32.8833342 138.7625,32.7 C138.204164,32.5166658 137.600003,32.425 136.95,32.425 C135.999995,32.425 135.195837,32.5291656 134.5375,32.7375 C133.879163,32.9458344 133.320836,33.1791654 132.8625,33.4375 C132.404164,33.6958346 132.016668,33.9291656 131.7,34.1375 C131.383332,34.3458344 131.100001,34.45 130.85,34.45 C130.249997,34.45 129.816668,34.2000025 129.55,33.7 L127.925,31.125 Z M132.65,60.6 C132.65,60.0833308 132.745832,59.591669 132.9375,59.125 C133.129168,58.658331 133.395832,58.258335 133.7375,57.925 C134.079168,57.591665 134.483331,57.325001 134.95,57.125 C135.416669,56.924999 135.916664,56.825 136.45,56.825 C136.966669,56.825 137.458331,56.924999 137.925,57.125 C138.391669,57.325001 138.791665,57.591665 139.125,57.925 C139.458335,58.258335 139.724999,58.658331 139.925,59.125 C140.125001,59.591669 140.225,60.0833308 140.225,60.6 C140.225,61.133336 140.125001,61.6291644 139.925,62.0875 C139.724999,62.5458356 139.458335,62.941665 139.125,63.275 C138.791665,63.608335 138.391669,63.8708324 137.925,64.0625 C137.458331,64.2541676 136.966669,64.35 136.45,64.35 C135.916664,64.35 135.416669,64.2541676 134.95,64.0625 C134.483331,63.8708324 134.079168,63.608335 133.7375,63.275 C133.395832,62.941665 133.129168,62.5458356 132.9375,62.0875 C132.745832,61.6291644 132.65,61.133336 132.65,60.6 Z" id="?" fill="#FFFFFF" fill-rule="nonzero"></path>
            <g id="noun_Meeting_1754107" transform="translate(248.000000, 44.000000)" fill="#FFFFFF" fill-rule="nonzero">
                <ellipse id="Oval" cx="11" cy="6.5" rx="6" ry="6.5"></ellipse>
                <path d="M17.0629035,40.189184 L9.57279718,40.189184 C7.63570071,40.189184 5.95688377,38.6366293 5.69860424,36.5195093 L3.37408848,20.5705385 C3.24494872,19.5825491 2.34097036,18.8768425 1.43699201,19.0179838 C0.53301366,19.1591251 -0.112685163,20.1471145 0.0164546011,21.1351038 L2.34097036,37.0840746 C2.85752942,41.036032 5.95688377,44 9.70193695,44 L17.3211831,44 C18.2251614,44 19,43.153152 19,42.1651627 C18.8708602,41.036032 18.0960216,40.189184 17.0629035,40.189184 Z" id="Path"></path>
                <path d="M27.8251599,24.4983278 C28.9765458,24.4983278 30,23.3478261 30,22.0535117 C30,20.7591973 28.9765458,19.6086957 27.8251599,19.6086957 L23.0916844,19.6086957 C21.5565032,19.6086957 20.1492537,19.1772575 18.869936,18.1705686 L14.6481876,15.006689 C13.880597,14.4314381 12.8571429,14 11.8336887,14 C11.8336887,14 11.8336887,14 11.8336887,14 L11.0660981,14 C9.53091684,14 8.12366738,14.7190635 7.22814499,16.0133779 C6.20469083,17.3076923 5.82089552,19.0334448 6.07675906,20.6153846 L8.25159915,36.0033445 C8.50746269,37.4414716 9.53091684,38.4481605 10.8102345,38.4481605 C10.8102345,38.4481605 10.8102345,38.4481605 10.8102345,38.4481605 L20.9168443,38.4481605 L23.4754797,54.5551839 C23.7313433,55.993311 24.7547974,57 26.0341151,57 C26.1620469,57 26.2899787,57 26.5458422,57 C27.9530917,56.7123746 28.8486141,55.2742475 28.5927505,53.6923077 L25.6503198,35.2842809 C25.3944563,33.8461538 24.3710021,32.8394649 23.0916844,32.8394649 C23.0916844,32.8394649 23.0916844,32.8394649 23.0916844,32.8394649 L17.8464819,32.8394649 L17.206823,22.6287625 C18.9978678,23.9230769 21.1727079,24.4983278 23.347548,24.4983278 L27.8251599,24.4983278 L27.8251599,24.4983278 Z" id="Path"></path>
                <ellipse id="Oval" cx="112" cy="6.5" rx="6" ry="6.5"></ellipse>
                <path d="M121.553174,19.0180859 C120.64301,18.8761432 119.732845,19.5858567 119.602821,20.5794555 L117.262398,36.6189799 C117.002351,38.7481203 115.312046,40.30949 113.361693,40.30949 L105.690306,40.30949 C104.780141,40.30949 104,41.1611461 104,42.154745 C104,43.1483438 104.780141,44 105.690306,44 L113.231669,44 C117.002351,44 119.992892,41.1611461 120.64301,37.044808 L122.983433,21.0052836 C123.113456,20.1536275 122.463339,19.1600286 121.553174,19.0180859 Z" id="Path"></path>
                <path d="M115.711886,16.0133779 C114.696829,14.7190635 113.301127,14 111.778542,14 L111.01725,14 C111.01725,14 111.01725,14 111.01725,14 C110.002194,14 108.987137,14.4314381 108.225845,15.006689 L104.038738,18.1705686 C102.769917,19.0334448 101.374215,19.6086957 99.8516303,19.6086957 L95.1569947,19.6086957 C94.0150563,19.6086957 93,20.7591973 93,22.0535117 C93,23.3478261 94.0150563,24.4983278 95.1569947,24.4983278 L99.8516303,24.4983278 C102.008625,24.4983278 104.038738,23.7792642 105.941968,22.6287625 L105.307558,32.8394649 L100.105394,32.8394649 C100.105394,32.8394649 100.105394,32.8394649 100.105394,32.8394649 C98.8365739,32.8394649 97.8215176,33.8461538 97.5677535,35.2842809 L94.6494666,53.6923077 C94.3957025,55.2742475 95.2838768,56.7123746 96.6795792,57 C96.8064613,57 96.9333433,57 97.1871074,57 C98.4559278,57 99.4709842,55.993311 99.7247482,54.5551839 L102.262389,38.4481605 L112.28607,38.4481605 C112.28607,38.4481605 112.28607,38.4481605 112.28607,38.4481605 C113.554891,38.4481605 114.569947,37.4414716 114.823711,36.0033445 L116.980706,20.6153846 C117.107588,19.0334448 116.60006,17.3076923 115.711886,16.0133779 Z" id="Path"></path>
                <ellipse id="Oval" cx="42" cy="6.5" rx="6" ry="6.5"></ellipse>
                <path d="M48.4761905,18.3835616 C47.8412698,15.7808219 45.5555556,14 43.1428571,14 L40.8571429,14 C38.3174603,14 36.1587302,15.7808219 35.5238095,18.3835616 L34,24 L50,24 L48.4761905,18.3835616 Z" id="Path"></path>
                <ellipse id="Oval" cx="62" cy="6.5" rx="6" ry="6.5"></ellipse>
                <path d="M68.4761905,18.3835616 C67.8412698,15.7808219 65.5555556,14 63.1428571,14 L60.8571429,14 C58.3174603,14 56.1587302,15.7808219 55.5238095,18.3835616 L54,24 L70,24 L68.4761905,18.3835616 Z" id="Path"></path>
                <ellipse id="Oval" cx="81" cy="6.5" rx="6" ry="6.5"></ellipse>
                <path d="M87.4761905,18.3835616 C86.8412698,15.7808219 84.5555556,14 82.1428571,14 L79.8571429,14 C77.3174603,14 75.1587302,15.7808219 74.5238095,18.3835616 L73,24 L89,24 L87.4761905,18.3835616 Z" id="Path"></path>
                <path d="M103,28.8396226 C103,27.8490566 102.215311,27 101.299841,27 L22.7001595,27 C21.784689,27 21,27.8490566 21,28.8396226 C21,29.8301887 21.784689,30.6792453 22.7001595,30.6792453 L31.4625199,30.6792453 L31.4625199,55.1603774 C31.4625199,56.1509434 32.2472089,57 33.1626794,57 L90.7065391,57 C91.6220096,57 92.4066986,56.1509434 92.4066986,55.1603774 L92.4066986,30.6792453 L101.169059,30.6792453 C102.215311,30.6792453 103,29.8301887 103,28.8396226 Z" id="Path"></path>
            </g>
            <path d="M386.925,54.125 C387.49167,53.6249975 388.112497,53.1500023 388.7875,52.7 C389.462503,52.2499978 390.191663,51.858335 390.975,51.525 C391.758337,51.191665 392.608329,50.9291676 393.525,50.7375 C394.441671,50.5458324 395.433328,50.45 396.5,50.45 C397.950007,50.45 399.270827,50.649998 400.4625,51.05 C401.654173,51.450002 402.674996,52.0208296 403.525,52.7625 C404.375004,53.5041704 405.033331,54.3999948 405.5,55.45 C405.966669,56.5000053 406.2,57.6749935 406.2,58.975 C406.2,60.241673 406.016668,61.3374954 405.65,62.2625 C405.283332,63.1875046 404.820836,63.9916633 404.2625,64.675 C403.704164,65.3583368 403.100003,65.9499975 402.45,66.45 C401.799997,66.9500025 401.183336,67.4208311 400.6,67.8625 C400.016664,68.3041689 399.512502,68.7374979 399.0875,69.1625 C398.662498,69.5875021 398.408334,70.066664 398.325,70.6 L397.75,74.25 L393.525,74.25 L393.1,70.175 C393.083333,70.0916663 393.075,70.0208336 393.075,69.9625 L393.075,69.75 C393.075,69.016663 393.258331,68.3791694 393.625,67.8375 C393.991669,67.2958306 394.449997,66.7875024 395,66.3125 C395.550003,65.8374976 396.141663,65.3750022 396.775,64.925 C397.408337,64.4749977 397.999997,63.9875026 398.55,63.4625 C399.100003,62.9374974 399.558332,62.34167 399.925,61.675 C400.291669,61.00833 400.475,60.2250045 400.475,59.325 C400.475,58.724997 400.362501,58.1875024 400.1375,57.7125 C399.912499,57.2374976 399.600002,56.8291684 399.2,56.4875 C398.799998,56.1458316 398.320836,55.8833342 397.7625,55.7 C397.204164,55.5166658 396.600003,55.425 395.95,55.425 C394.999995,55.425 394.195837,55.5291656 393.5375,55.7375 C392.879163,55.9458344 392.320836,56.1791654 391.8625,56.4375 C391.404164,56.6958346 391.016668,56.9291656 390.7,57.1375 C390.383332,57.3458344 390.100001,57.45 389.85,57.45 C389.249997,57.45 388.816668,57.2000025 388.55,56.7 L386.925,54.125 Z M391.65,83.6 C391.65,83.0833308 391.745832,82.591669 391.9375,82.125 C392.129168,81.658331 392.395832,81.258335 392.7375,80.925 C393.079168,80.591665 393.483331,80.325001 393.95,80.125 C394.416669,79.924999 394.916664,79.825 395.45,79.825 C395.966669,79.825 396.458331,79.924999 396.925,80.125 C397.391669,80.325001 397.791665,80.591665 398.125,80.925 C398.458335,81.258335 398.724999,81.658331 398.925,82.125 C399.125001,82.591669 399.225,83.0833308 399.225,83.6 C399.225,84.133336 399.125001,84.6291644 398.925,85.0875 C398.724999,85.5458356 398.458335,85.941665 398.125,86.275 C397.791665,86.608335 397.391669,86.8708324 396.925,87.0625 C396.458331,87.2541676 395.966669,87.35 395.45,87.35 C394.916664,87.35 394.416669,87.2541676 393.95,87.0625 C393.483331,86.8708324 393.079168,86.608335 392.7375,86.275 C392.395832,85.941665 392.129168,85.5458356 391.9375,85.0875 C391.745832,84.6291644 391.65,84.133336 391.65,83.6 Z" id="?" fill="#FFFFFF" fill-rule="nonzero"></path>
        </g>
    </g>
</svg>